<svg width="149" height="29" viewBox="0 0 149 29" fill="none" xmlns="http://www.w3.org/2000/svg">
<rect width="30" height="29" rx="2" fill="#2ACD5F"/>
<path d="M22.2949 17.6113L23.585 18.376L23.8037 18.5059L23.584 18.6348L15.0654 23.6299L14.9893 23.6738L14.9141 23.6289L6.41504 18.6348L6.19629 18.5059L6.41504 18.376L7.70508 17.6113L7.78125 17.5654L7.85742 17.6104L14.9893 21.7959L22.1426 17.6104L22.2188 17.5654L22.2949 17.6113ZM22.2949 13.8984L23.585 14.6631L23.8037 14.793L23.584 14.9219L15.0654 19.917L14.9893 19.9619L14.9141 19.917L6.41504 14.9219L6.19629 14.793L6.41504 14.6631L7.70508 13.8984L7.78125 13.8535L7.85742 13.8984L14.9893 18.083L22.1426 13.8984L22.2188 13.8535L22.2949 13.8984ZM15.0654 5.37109L24.0762 10.6582L24.2959 10.7871L24.0762 10.917L15.0654 16.2041L14.9893 16.249L14.9141 16.2041L5.92383 10.917L5.7041 10.7871L5.92383 10.6582L14.9141 5.37109L14.9893 5.32617L15.0654 5.37109ZM8.85742 10.7871L14.9902 14.3486L21.1406 10.7871L14.9902 7.22559L8.85742 10.7871Z" fill="white" stroke="white" stroke-width="0.3"/>
<path d="M51.928 18.808H45.256L44.152 22H40.624L46.648 5.224H50.56L56.584 22H53.032L51.928 18.808ZM51.016 16.12L48.592 9.112L46.168 16.12H51.016ZM62.1957 10.624C62.6277 10.016 63.2197 9.512 63.9717 9.112C64.7397 8.696 65.6117 8.488 66.5877 8.488C67.7237 8.488 68.7477 8.768 69.6597 9.328C70.5877 9.888 71.3157 10.688 71.8437 11.728C72.3877 12.752 72.6597 13.944 72.6597 15.304C72.6597 16.664 72.3877 17.872 71.8437 18.928C71.3157 19.968 70.5877 20.776 69.6597 21.352C68.7477 21.928 67.7237 22.216 66.5877 22.216C65.6117 22.216 64.7477 22.016 63.9957 21.616C63.2597 21.216 62.6597 20.712 62.1957 20.104V28.336H58.8357V8.704H62.1957V10.624ZM69.2277 15.304C69.2277 14.504 69.0597 13.816 68.7237 13.24C68.4037 12.648 67.9717 12.2 67.4277 11.896C66.8997 11.592 66.3237 11.44 65.6997 11.44C65.0917 11.44 64.5157 11.6 63.9717 11.92C63.4437 12.224 63.0117 12.672 62.6757 13.264C62.3557 13.856 62.1957 14.552 62.1957 15.352C62.1957 16.152 62.3557 16.848 62.6757 17.44C63.0117 18.032 63.4437 18.488 63.9717 18.808C64.5157 19.112 65.0917 19.264 65.6997 19.264C66.3237 19.264 66.8997 19.104 67.4277 18.784C67.9717 18.464 68.4037 18.008 68.7237 17.416C69.0597 16.824 69.2277 16.12 69.2277 15.304ZM78.4613 10.624C78.8933 10.016 79.4853 9.512 80.2373 9.112C81.0053 8.696 81.8773 8.488 82.8533 8.488C83.9893 8.488 85.0133 8.768 85.9253 9.328C86.8533 9.888 87.5813 10.688 88.1093 11.728C88.6533 12.752 88.9253 13.944 88.9253 15.304C88.9253 16.664 88.6533 17.872 88.1093 18.928C87.5813 19.968 86.8533 20.776 85.9253 21.352C85.0133 21.928 83.9893 22.216 82.8533 22.216C81.8773 22.216 81.0133 22.016 80.2613 21.616C79.5253 21.216 78.9253 20.712 78.4613 20.104V28.336H75.1013V8.704H78.4613V10.624ZM85.4933 15.304C85.4933 14.504 85.3253 13.816 84.9893 13.24C84.6693 12.648 84.2373 12.2 83.6933 11.896C83.1653 11.592 82.5893 11.44 81.9653 11.44C81.3573 11.44 80.7813 11.6 80.2373 11.92C79.7093 12.224 79.2773 12.672 78.9413 13.264C78.6213 13.856 78.4613 14.552 78.4613 15.352C78.4613 16.152 78.6213 16.848 78.9413 17.44C79.2773 18.032 79.7093 18.488 80.2373 18.808C80.7813 19.112 81.3573 19.264 81.9653 19.264C82.5893 19.264 83.1653 19.104 83.6933 18.784C84.2373 18.464 84.6693 18.008 84.9893 17.416C85.3253 16.824 85.4933 16.12 85.4933 15.304Z" fill="#2A3439"/>
<path d="M96.5989 5.224C98.4549 5.224 100.047 5.56 101.375 6.232C102.703 6.904 103.719 7.872 104.423 9.136C105.127 10.4 105.479 11.904 105.479 13.648C105.479 15.376 105.127 16.872 104.423 18.136C103.719 19.384 102.703 20.344 101.375 21.016C100.047 21.672 98.4549 22 96.5989 22H91.6309V5.224H96.5989ZM96.5989 20.608C98.9349 20.608 100.711 20 101.927 18.784C103.159 17.552 103.775 15.84 103.775 13.648C103.775 11.44 103.159 9.72 101.927 8.488C100.711 7.24 98.9349 6.616 96.5989 6.616H93.3109V20.608H96.5989ZM120.432 14.776C120.432 15.352 120.416 15.792 120.384 16.096H109.512C109.56 17.088 109.8 17.936 110.232 18.64C110.664 19.344 111.232 19.88 111.936 20.248C112.64 20.6 113.408 20.776 114.24 20.776C115.328 20.776 116.24 20.512 116.976 19.984C117.728 19.456 118.224 18.744 118.464 17.848H120.24C119.92 19.128 119.232 20.176 118.176 20.992C117.136 21.792 115.824 22.192 114.24 22.192C113.008 22.192 111.904 21.92 110.928 21.376C109.952 20.816 109.184 20.032 108.624 19.024C108.08 18 107.808 16.808 107.808 15.448C107.808 14.088 108.08 12.896 108.624 11.872C109.168 10.848 109.928 10.064 110.904 9.52C111.88 8.976 112.992 8.704 114.24 8.704C115.488 8.704 116.576 8.976 117.504 9.52C118.448 10.064 119.168 10.8 119.664 11.728C120.176 12.64 120.432 13.656 120.432 14.776ZM118.728 14.728C118.744 13.752 118.544 12.92 118.128 12.232C117.728 11.544 117.176 11.024 116.472 10.672C115.768 10.32 115 10.144 114.168 10.144C112.92 10.144 111.856 10.544 110.976 11.344C110.096 12.144 109.608 13.272 109.512 14.728H118.728ZM135.362 14.776C135.362 15.352 135.346 15.792 135.314 16.096H124.442C124.49 17.088 124.73 17.936 125.162 18.64C125.594 19.344 126.162 19.88 126.866 20.248C127.57 20.6 128.338 20.776 129.17 20.776C130.258 20.776 131.17 20.512 131.906 19.984C132.658 19.456 133.154 18.744 133.394 17.848H135.17C134.85 19.128 134.162 20.176 133.106 20.992C132.066 21.792 130.754 22.192 129.17 22.192C127.938 22.192 126.834 21.92 125.858 21.376C124.882 20.816 124.114 20.032 123.554 19.024C123.01 18 122.738 16.808 122.738 15.448C122.738 14.088 123.01 12.896 123.554 11.872C124.098 10.848 124.858 10.064 125.834 9.52C126.81 8.976 127.922 8.704 129.17 8.704C130.418 8.704 131.506 8.976 132.434 9.52C133.378 10.064 134.098 10.8 134.594 11.728C135.106 12.64 135.362 13.656 135.362 14.776ZM133.658 14.728C133.674 13.752 133.474 12.92 133.058 12.232C132.658 11.544 132.106 11.024 131.402 10.672C130.698 10.32 129.93 10.144 129.098 10.144C127.85 10.144 126.786 10.544 125.906 11.344C125.026 12.144 124.538 13.272 124.442 14.728H133.658ZM140.116 4.24V22H138.436V4.24H140.116Z" fill="#2ACD5F"/>
</svg>
